<svg xmlns="http://www.w3.org/2000/svg" xml:space="preserve" viewBox="0 0 512 512"><path d="M258.37984 511.64728c-117.15.081-214.800002-.22478-217.000002-.67954-2.2-.45475-6.00579-1.54648-8.45731-2.42606-2.45152-.87959-6.56083-2.94908-9.1318-4.59886-2.57097-1.64979-6.89443-5.34934-9.60769-8.22122-2.71327-2.87188-6.1471096-7.29579-7.6307696-9.8309-1.48366-2.53512-3.59806-8.17027-4.69866-12.52256-1.97457999-7.80842-1.99759999-10.72828-1.73742999-220.3907L.37983841 40.5l2.25437999-5.919275c1.2399-3.255601 3.61518-8.03991 5.27839-10.631798s5.3737396-6.932466 8.2456196-9.645728c2.87189-2.713263 7.28538-6.141009 9.80778-7.617213 2.52239-1.476204 8.10687-3.584453 12.40996-4.684997C46.078918.030908 49.438518 0 255.87984 0 462.32116 0 465.68076.03091 473.3837 2.000989c4.30309 1.100544 9.88757 3.208793 12.40997 4.684997 2.52239 1.476204 6.93589 4.90395 9.80777 7.617213 2.87188 2.713262 6.58241 7.05384 8.24562 9.645728s4.03849 7.376197 5.2784 10.631798L511.37984 40.5l.26366 212.47744c.26016 209.66242.23715 212.58228-1.73744 220.3907-1.1006 4.35229-3.215 9.98744-4.69866 12.52256-1.48365 2.53511-4.9175 6.95902-7.63076 9.8309-2.71327 2.87188-7.05384 6.58241-9.64573 8.24562s-7.3762 4.03849-10.6318 5.2784L471.37984 511.5Zm-154.5-114.13162c11.59366-.27084 21.07632-1.01382 25.40119-1.99023 3.79566-.85694 10.87078-2.888 15.72251-4.51348 4.85172-1.62547 11.64619-4.37283 15.09881-6.10524s9.87749-5.50416 14.27749-8.38166 11.12029-8.1103 14.93398-11.62844 9.44818-9.78415 12.52109-13.92448c3.07291-4.14032 7.24102-10.89032 9.26248-15 2.02145-4.10967 4.81558-11.4293 6.20916-16.26583 1.39358-4.83654 2.81721-12.26154 3.16362-16.5.35688-4.36653.14864-10.3066-.48049-13.7063-.61068-3.3-2.5422-8.92176-4.29228-12.4928-2.14452-4.37593-5.6493-8.95788-10.74975-14.05364-4.24961-4.2457-12.61013-10.8863-19.06781-15.1452-6.325-4.1714-18.925-11.51113-28-16.31051s-19.2-10.32802-22.5-12.28587c-3.3-1.95786-7.8-4.90846-10-6.55691-2.2-1.64844-5.96488-4.83269-8.36639-7.07612-2.40151-2.24342-5.66366-6.77895-7.24921-10.07895-2.27275-4.73026-2.88048-7.37556-2.87175-12.5.006-3.575.62596-8.80923 1.37747-11.63161.75151-2.82239 2.84394-7.90379 4.64985-11.29201 1.85067-3.47221 5.73888-8.43298 8.91045-11.36839 3.09485-2.8644 8.30958-6.6249 11.58829-8.35667s8.21129-3.9022 10.96129-4.82318c2.75-.92097 8.64641-2.0889 13.10315-2.59539 5.14336-.58453 10.9709-.5573 15.95432.0745 4.82287.61148 10.25236 2.11908 14.07646 3.9086 3.42391 1.60224 8.34518 4.86412 10.93617 7.24864 2.59098 2.38451 5.81427 6.07995 7.16286 8.21209 1.34858 2.13213 3.48808 6.63213 4.75443 10 1.26635 3.36786 2.8388 9.72339 3.49434 14.12339.65555 4.4 1.39822 9.4625 1.6504 11.25l.45849 3.25h6.34628c5.75268 0 6.39742-.21046 6.89298-2.25.30068-1.2375 3.30223-16.425 6.67012-33.75 3.36788-17.325 6.36943-32.5125 6.67012-33.75.50373-2.07318.20416-2.24971-3.81172-2.24627-4.11986.004-4.63206.33749-9.3584 6.10191-2.75 3.354-5.70585 6.99066-6.56856 8.08145-1.53173 1.93671-1.69606 1.87377-7-2.68109-2.98729-2.5654-9.48144-6.6293-14.43144-9.0309-5.52977-2.68288-12.27573-5.01995-17.49553-6.06114-6.45157-1.28689-11.26343-1.55248-20-1.10388-7.29272.37446-14.98654 1.50023-21.01581 3.07506-5.23123 1.36639-12.64836 3.89183-16.4825 5.61209-3.83415 1.72027-10.62023 5.55575-15.08019 8.52331-4.45997 2.96756-11.308422 8.61404-15.218802 12.54773-3.91037 3.9337-9.41237 10.483-12.22665 14.554-2.81429 4.07101-6.43373 10.30607-8.0432 13.8557-1.60948 3.54962-4.07256 10.4067-5.47351 15.23794-1.40095 4.83125-2.81116 12.83409-3.13381 17.78409-.43538 6.67945-.16257 10.64883 1.05809 15.39482.9046 3.51715 2.87484 8.68373 4.37832 11.48128 1.50347 2.79756 5.65859 8.03635 9.23359 11.64177s11 9.54108 16.5 13.19036c5.500002 3.64928 18.550002 11.07973 29.000002 16.51212s22.22717 12.01004 26.1715 14.61701 9.84912 7.60232 13.12175 11.10078c3.8262 4.09022 6.53148 8.06665 7.5785 11.13948.95468 2.80183 1.61757 7.91096 1.60243 12.35051-.0176 5.15863-.73834 9.66192-2.26146 14.12968-1.22961 3.6068-3.80549 9.17025-5.72419 12.36321-1.91869 3.19297-6.51127 8.61506-10.20571 12.0491-4.07173 3.78471-9.634 7.66599-14.12336 9.8551-4.0734 1.98628-10.95067 4.61835-15.28282 5.84905-6.48834 1.84325-10.43235 2.24233-22.37664 2.26425-12.175702.0223-15.776752-.34023-22.464892-2.26186-4.38069-1.25865-10.68069-3.71569-14-5.4601s-8.79206-5.89703-12.16166-9.22806c-3.44998-3.41048-7.44199-8.66285-9.13756-12.02245-1.65606-3.28133-3.76579-8.44105-4.68828-11.46605s-1.9393-10.7875-2.25957-17.25l-.58232-11.75h-6.27341c-6.04163 0-6.29404.1016-6.83201 2.75-.30723 1.5125-3.49299 18.77283-7.07945 38.3563-3.58647 19.58346-6.52085 36.57096-6.52085 37.75 0 1.82006.58072 2.1437 3.84651 2.1437 3.62416 0 4.24167-.49134 10.68259-8.5 3.75984-4.675 7.34472-8.5 7.9664-8.5.62167 0 2.41461 1.34051 3.9843 2.97891 1.56969 1.63841 5.99821 5.08846 9.84115 7.6668 3.84294 2.57833 10.38967 6.00907 14.54828 7.62387 4.15861 1.61479 10.50178 3.55299 14.09594 4.30712 4.69906.98595 11.73187 1.24972 25.034832.93896zm150.68646-2.75515 43.68646-.26051 1.66975-6.61702 1.66976-6.61702-6.82445-.57214c-3.75345-.31467-8.81311-1.45181-11.24368-2.52697-3.42163-1.51355-4.67802-2.73898-5.56565-5.42853-.82971-2.51405-.8558-4.77054-.0944-8.1679.5786-2.58181 2.37771-7.61801 3.99804-11.19155 1.62032-3.57355 6.1861-11.9832 10.14618-18.68811 3.96008-6.70492 11.38457-18.60326 16.49886-26.44076l9.29872-14.25h48.03699c37.76071 0 48.03789.2674 48.04116 1.25.002.6875 1.14282 10.025 2.53453 20.75s3.01352 23.42319 3.60403 28.21822c.79182 6.42967.76775 10.47487-.0917 15.41021-.64095 3.6806-1.79847 7.9163-2.57227 9.41267-.7738 1.49636-2.79353 3.88743-4.4883 5.31348-1.69476 1.42605-4.9072 3.08446-7.13876 3.68535-2.23156.6009-8.60452 1.62524-14.16214 2.2763L381.46468 381.5l-1.13872 4c-.62629 2.2-1.44144 5.2375-1.81144 6.75l-.67274 2.75h117.71985l1.28663-5.75c.70764-3.1625 1.47994-6.25398 1.71621-6.86995.27294-.71157-2.34549-1.53269-7.18072-2.25184-4.18566-.62254-8.99818-1.84959-10.69448-2.72678-1.69629-.87719-4.21247-2.78887-5.59149-4.24816-1.37903-1.4593-3.73784-5.35327-5.2418-8.65327-1.50397-3.3-3.66429-9.825-4.80071-14.5-1.13643-4.675-2.79908-12.55-3.69477-17.5-.8957-4.95-8.70205-55.35-17.34744-112l-15.7189-103h-15.59205l-77.81082 120c-68.02903 104.91451-78.79769 121.02037-85.66111 128.11671-6.39591 6.61298-8.96188 8.53165-13.85029 10.3564-3.3 1.23183-9.44871 2.93015-13.66379 3.77404l-7.66378 1.53436-1.58622 6.31476c-.87242 3.47312-1.58621 6.56451-1.58621 6.86975 0 .30525 19.6589.43777 43.68646.29449zM370.37984 276c-22.275 0-40.5-.18919-40.5-.42043 0-.23123 15.09174-23.96873 33.5372-52.75 18.44546-28.78126 33.97046-52.47957 34.5-52.66291.52954-.18333.9628.33086.9628 1.14265s2.7 24.10997 6 51.77372c3.3 27.66376 6 50.88706 6 51.60735 0 1.05793-7.78343 1.30962-40.5 1.30962" fill="currentColor"/></svg>